Coordinates
version=1
nRows=13
nColumns=40
inDegrees=yes

Units are S.I. units (second, meters, Newtons, ...)
Angles are in degrees.

endheader
time	pelvis_tilt	pelvis_list	pelvis_rotation	pelvis_tx	pelvis_ty	pelvis_tz	hip_flexion_r	hip_adduction_r	hip_rotation_r	knee_angle_r	knee_angle_r_beta	ankle_angle_r	subtalar_angle_r	mtp_angle_r	hip_flexion_l	hip_adduction_l	hip_rotation_l	knee_angle_l	knee_angle_l_beta	ankle_angle_l	subtalar_angle_l	mtp_angle_l	lumbar_extension	lumbar_bending	lumbar_rotation	arm_flex_r	arm_add_r	arm_rot_r	elbow_flex_r	pro_sup_r	wrist_flex_r	wrist_dev_r	arm_flex_l	arm_add_l	arm_rot_l	elbow_flex_l	pro_sup_l	wrist_flex_l	wrist_dev_l
     23.25000000	     -4.81664163	     -5.14041966	     -0.22909308	      1.04209234	      0.92793824	      0.43333958	     29.93627054	     -6.40211166	     -5.59383286	     69.13931950	     69.13931950	     -2.17309984	    -13.00594191	     -2.68713036	     19.91050200	     -5.77355680	     -4.27850550	     25.79206187	     25.79206187	     12.92189640	    -12.67393392	      2.54981231	    -12.04298415	      5.59957116	      4.19345930	     14.46555331	    -14.14221976	     -2.25774113	     84.82370606	     44.76318474	      0.00000000	      0.00000000	      7.46111065	    -11.99660789	      4.65080945	     45.87213897	     45.83574291	      0.00000000	      0.00000000
     23.26200000	     -4.88367422	     -5.27842697	     -0.64805168	      1.04018659	      0.92878684	      0.43318711	     31.47170112	     -6.10939666	     -5.60874409	     68.00942235	     68.00942235	     -2.05491964	    -12.94776268	     -2.97118116	     19.12951555	     -5.97283890	     -4.62227135	     25.28612059	     25.28612059	     13.18930401	    -12.60520379	      2.36624972	    -12.13424834	      5.82839251	      4.38706370	     12.97090705	    -14.24023307	     -2.49214760	     80.72907722	     44.91205014	      0.00000000	      0.00000000	      9.62719496	    -12.54419289	      5.04891195	     47.20992941	     45.86091216	      0.00000000	      0.00000000
     23.27400000	     -4.95970293	     -5.41241454	     -1.06878233	      1.03835618	      0.92958382	      0.43311892	     32.85830960	     -5.75794269	     -5.62718893	     66.62499555	     66.62499555	     -1.97778783	    -12.87586997	     -2.99964427	     18.31910718	     -6.17418171	     -5.02390800	     24.70836343	     24.70836343	     13.40902507	    -12.43506269	      2.01913428	    -12.20229490	      6.01722595	      4.35004804	     11.99088258	    -14.13056854	     -2.66728976	     75.84298172	     45.08740355	      0.00000000	      0.00000000	     11.49471148	    -13.39520975	      5.78642935	     48.99928069	     45.87031518	      0.00000000	      0.00000000
     23.28600000	     -5.00000799	     -5.52726850	     -1.49917141	      1.03663182	      0.93035214	      0.43309964	     34.06034084	     -5.39820161	     -5.66826136	     64.99908136	     64.99908136	     -1.84162400	    -12.63643850	     -2.65521864	     17.46519566	     -6.34888235	     -5.44706417	     24.12804812	     24.12804812	     13.59920747	    -12.30167084	      1.65427103	    -12.33303601	      6.17424754	      4.35917077	     11.22664562	    -14.12174429	     -2.70385303	     70.78420550	     45.26111179	      0.00000000	      0.00000000	     13.33665159	    -14.27082873	      6.37948420	     50.84264712	     45.90142495	      0.00000000	      0.00000000
     23.29800000	     -4.99850929	     -5.65470222	     -1.86942720	      1.03516120	      0.93114470	      0.43306136	     34.99064554	     -5.03026333	     -5.80506819	     63.02721584	     63.02721584	     -1.71978667	    -12.29445260	     -2.36701500	     16.51086964	     -6.49061881	     -5.76989826	     23.43961287	     23.43961287	     13.89629742	    -12.14672611	      1.58728231	    -12.53841871	      6.38986421	      4.76779575	      9.44055406	    -14.65407490	     -2.56252474	     67.93028808	     45.34513280	      0.00000000	      0.00000000	     15.42556607	    -14.57343596	      6.23342289	     52.31774201	     45.95974894	      0.00000000	      0.00000000
     23.31000000	     -4.96071731	     -5.70539276	     -2.32872602	      1.03377298	      0.93187720	      0.43317085	     35.75871338	     -4.66200506	     -5.82975500	     60.77916376	     60.77916376	     -1.59000735	    -11.71251166	     -2.00454742	     15.50374845	     -6.58291332	     -6.27508864	     22.76661743	     22.76661743	     14.14021553	    -11.91719591	      1.35285963	    -12.77805246	      6.48051402	      5.36762501	      8.32946462	    -15.12001240	     -2.65245741	     63.35395282	     45.49903537	      0.00000000	      0.00000000	     17.51376819	    -14.88912070	      6.40716783	     54.03464777	     45.99750324	      0.00000000	      0.00000000
     23.32200000	     -5.03571814	     -5.71008271	     -2.70831667	      1.03247328	      0.93231008	      0.43342815	     36.47331397	     -4.35442830	     -5.96602938	     58.23401900	     58.23401900	     -1.32237524	    -10.98818615	     -1.47334670	     14.65219110	     -6.62827642	     -6.76570388	     22.09979745	     22.09979745	     14.09917583	    -11.74414269	      0.45595820	    -12.69475453	      6.45970024	      4.29230887	      9.83598072	    -14.05541499	     -3.02965832	     54.04475896	     45.83024440	      0.00000000	      0.00000000	     18.44908169	    -16.74283932	      7.45131371	     56.25361429	     46.00557072	      0.00000000	      0.00000000
     23.33400000	     -5.01923887	     -5.70716092	     -3.10617761	      1.03142599	      0.93280531	      0.43365494	     36.85366374	     -4.05798397	     -6.16062649	     55.27577198	     55.27577198	     -1.11197072	    -10.00271882	     -1.29682200	     13.62480932	     -6.62240920	     -7.21333542	     21.34253004	     21.34253004	     14.32685169	    -11.52214370	      0.33090905	    -12.94767055	      6.52060481	      4.83157969	      8.26813744	    -14.70280074	     -2.88392942	     51.17375459	     45.91366826	      0.00000000	      0.00000000	     20.27982561	    -16.99878144	      7.09303765	     58.05422448	     46.08669466	      0.00000000	      0.00000000
     23.34600000	     -5.08728126	     -5.61601995	     -3.47901879	      1.03051941	      0.93297325	      0.43397097	     37.14892751	     -3.81828840	     -6.35805001	     51.98605066	     51.98605066	     -1.09898532	     -9.02010795	     -1.63915617	     12.70921965	     -6.54470974	     -7.79756484	     20.60113240	     20.60113240	     14.27609726	    -11.26375434	     -0.62078688	    -12.87798737	      6.44256345	      4.22361118	      9.27028331	    -14.25758031	     -2.94914329	     42.87637180	     46.20074035	      0.00000000	      0.00000000	     21.13167440	    -18.35955642	      7.36382501	     60.74072559	     46.16998783	      0.00000000	      0.00000000
     23.35800000	     -5.06910001	     -5.53167253	     -3.83031273	      1.02985384	      0.93311759	      0.43432679	     37.09125634	     -3.57571889	     -6.65199874	     48.30706916	     48.30706916	     -1.04006250	     -7.73377693	     -2.24928485	     11.63960142	     -6.42528631	     -8.24276307	     19.77697305	     19.77697305	     14.31866029	    -11.07460174	     -1.29262821	    -12.98514609	      6.40083865	      3.87765632	      9.27189109	    -14.22873642	     -3.01096853	     37.43185978	     46.37025535	      0.00000000	      0.00000000	     21.94770672	    -19.25495182	      6.50465156	     63.56050013	     46.36576023	      0.00000000	      0.00000000
     23.37000000	     -5.05401601	     -5.41534899	     -4.14689717	      1.02937925	      0.93309000	      0.43468872	     36.83886695	     -3.37740477	     -7.06140546	     44.38197537	     44.38197537	     -0.72147946	     -6.11363645	     -2.09971070	     10.60338340	     -6.26955978	     -8.71081467	     19.03725587	     19.03725587	     14.59814282	    -10.70528988	     -1.47524345	    -13.12746069	      6.35405318	      4.31609037	      7.63343147	    -14.79858478	     -2.97351939	     35.30988120	     46.43264672	      0.00000000	      0.00000000	     23.54115431	    -19.46579996	      6.12907769	     65.32259984	     46.44540242	      0.00000000	      0.00000000
     23.38200000	     -5.08022878	     -5.24961443	     -4.42974979	      1.02909198	      0.93275069	      0.43516867	     36.40890361	     -3.18512274	     -7.52724369	     40.17410646	     40.17410646	     -0.67033185	     -4.50838061	     -2.53453493	      9.59797386	     -6.08245646	     -9.29278891	     18.25246287	     18.25246287	     14.58959413	    -10.25222598	     -2.54260448	    -13.11021743	      6.23395015	      3.85053394	      7.89073390	    -14.63079611	     -3.28783351	     29.49423116	     46.65877760	      0.00000000	      0.00000000	     24.11363848	    -20.71096091	      6.04932456	     68.37722032	     46.58127453	      0.00000000	      0.00000000
     23.39400000	     -5.05231058	     -5.06458710	     -4.65571878	      1.02909209	      0.93229360	      0.43561216	     35.72576065	     -3.02315620	     -8.14648484	     35.86345813	     35.86345813	     -0.33299511	     -2.63015236	     -2.02508754	      8.54943778	     -5.83303440	     -9.73113227	     17.53535087	     17.53535087	     14.89783621	     -9.81815324	     -2.77823873	    -13.16902231	      6.11588802	      4.15042197	      6.16642077	    -15.06881924	     -3.34539739	     27.98325834	     46.70680482	      0.00000000	      0.00000000	     25.50898922	    -20.90806868	      5.58282405	     70.16744307	     46.66513532	      0.00000000	      0.00000000
